<svg width="253" height="253" viewBox="0 0 253 253" fill="none" xmlns="http://www.w3.org/2000/svg">
<path d="M109.019 0.224803C163.339 -3.11774 209.075 31.054 208.041 86.7303L208.082 91.7694L231.682 133.443C232.951 135.688 233.064 138.407 231.983 140.756C230.911 143.106 228.77 144.794 226.24 145.288L211.656 149.313L207.078 193.508C206.952 197.764 205.058 201.769 201.85 204.575C198.637 207.364 194.394 208.693 190.163 208.219L178.515 209.149C176.244 208.894 173.965 209.618 172.265 211.143C170.56 212.672 169.588 214.854 169.588 217.141V251.711H71.0578C71.0578 251.711 71.0578 235.027 71.0578 228.309C71.0578 221.59 68.7413 206.23 64.3349 199.202C48.363 173.663 22.3596 160.075 17.9743 107.691C13.5886 55.3151 44.8489 4.17892 109.019 0.224803ZM41.0998 97.629C45.9334 97.629 50.9809 97.629 50.9809 97.629C53.3849 97.6251 55.3372 95.6734 55.3416 93.2688V87.1825C55.3416 84.954 57.1552 83.1404 59.3837 83.1404C61.6162 83.1404 63.4298 84.954 63.4298 87.1825V93.2688C63.4258 100.147 57.8548 105.714 50.9809 105.718C50.9686 105.718 46.8591 105.718 42.5029 105.718C47.1482 124.889 59.9447 132.11 72.7745 124.864C81.1356 120.135 80.4237 113.077 84.3228 107.221V85.8335C84.3228 83.605 86.1369 81.7914 88.3693 81.7914C90.6018 81.7914 92.4114 83.6055 92.4114 85.8335V100.879C98.217 98.3915 107.461 96.7952 122.897 96.7952C127.077 96.7952 130.935 96.7618 134.533 96.6945V80.4468C134.533 78.2099 136.347 76.4003 138.579 76.4003C140.812 76.4003 142.621 78.2099 142.621 80.4468V96.4727C175.331 95.1994 180.14 89.9425 182.711 76.7233C182.816 75.9357 182.891 75.157 182.959 74.3817H165.789C157.646 74.3817 151.045 67.7802 151.045 59.6418V53.2748C151.045 51.0424 152.858 49.2327 155.091 49.2327C157.324 49.2327 159.133 51.0424 159.133 53.2748V59.6418C159.141 63.3152 162.115 66.2896 165.789 66.2974H182.98C181.991 55.0466 176.676 45.8484 168.415 37.4372C162.103 30.9989 154.316 26.0104 145.482 22.6217C145.482 27.8496 145.482 32.9511 145.482 34.9997C145.458 38.4681 144.242 42.0034 141.905 45.0102C140.733 46.5017 139.241 47.8508 137.419 48.8306C135.61 49.8187 133.453 50.4136 131.153 50.4097C124.656 50.4097 118.155 50.4097 118.155 50.4097C115.923 50.4097 114.113 48.5961 114.113 46.3675C114.113 44.1351 115.923 42.3215 118.155 42.3215C118.155 42.3215 124.656 42.3215 131.153 42.3215C132.1 42.3171 132.858 42.0993 133.578 41.7138C134.646 41.144 135.643 40.093 136.347 38.8024C137.046 37.5291 137.407 36.0376 137.394 34.9992C137.394 32.6159 137.394 26.0984 137.394 20.0578C130.688 18.3239 123.53 17.4065 116.044 17.4065C114.143 17.4065 112.216 17.465 110.289 17.5865C93.3249 18.6297 78.6391 23.949 67.1371 33.0883V68.6464C67.1371 70.8833 65.323 72.6964 63.0906 72.6964C60.8581 72.6964 59.0489 70.8828 59.0489 68.6464V40.7173C58.8346 40.9557 58.6128 41.1863 58.3995 41.4292C46.8134 54.8372 40.5683 73.3385 40.7315 92.9626C40.8107 94.5844 40.9405 96.1252 41.0998 97.629Z" fill="#0F6F21"/>
<path d="M92.4098 42.3639C94.6423 42.3639 96.4559 44.1775 96.4559 46.4099V59.4788C96.4603 62.3017 98.7468 64.6054 101.579 64.6098H116.001C118.233 64.6098 120.043 66.4151 120.043 68.648C120.043 70.8849 118.233 72.698 116.001 72.698H101.579C94.278 72.6857 88.3677 66.7794 88.3677 59.4788V46.4099C88.3677 44.1775 90.1774 42.3639 92.4098 42.3639Z" fill="#0F6F21"/>
</svg>
