<svg width="48" height="47" viewBox="0 0 48 47" fill="none" xmlns="http://www.w3.org/2000/svg">
<g clip-path="url(#clip0_59_1848)">
<path d="M3.43298 45.2991L2.81641 47.0038H13.2364L14.7085 42.6034C10.7355 44.422 6.16901 45.0675 3.43298 45.2991Z" fill="#0F6F21"/>
<path d="M38.227 19.8153C37.8802 21.0872 37.3253 22.6932 36.5584 23.5854C35.8994 24.3486 35.2443 24.7017 34.5854 24.7017C33.9264 24.7017 33.4447 24.3448 33.0324 23.9955C31.8648 23.0083 31.8994 21.8503 33.1056 20.4493C34.1461 19.2419 36.3927 18.2092 37.4871 17.7574L36.516 15.0541C36.4235 15.5971 36.2848 16.102 36.0883 16.5121C35.5488 17.6207 34.8782 18.1637 34.042 18.1637C33.5757 18.1637 33.1403 17.989 32.7858 17.822C31.3985 17.1613 31.1249 16.0299 31.9226 14.3707C32.5237 13.1216 34.0497 11.7737 35.0517 10.9726L31.1056 0H19.8416L3.97266 43.8145C8.51986 43.5184 12.4043 42.4325 15.094 41.4643L15.3291 40.7657C14.489 40.4544 14.0266 39.6305 13.9226 38.2599C13.7723 36.1223 15.3368 32.6976 15.4023 32.5496C15.464 32.4205 15.5796 32.3445 15.7222 32.3293C15.8648 32.3218 16.0112 32.3825 16.0921 32.5002C16.1422 32.5723 16.7626 33.4798 17.3792 34.634L23.4139 16.6032C23.3175 16.5159 23.2559 16.4589 23.2405 16.4437C23.1364 16.345 23.1056 16.1894 23.1403 16.0565C23.175 15.9198 23.2752 15.8249 23.41 15.7907C23.4293 15.7869 23.5372 15.7565 23.7068 15.7148L25.3676 10.7486L26.8089 15.1756C27.2289 15.1339 27.6567 15.1073 28.0651 15.1073C28.6663 15.1073 29.1788 15.168 29.595 15.2781C30.5391 15.5287 31.1596 15.9084 31.4678 16.4437C31.8147 17.0436 31.6952 17.6929 31.5411 18.2396C31.2289 19.3331 30.5468 19.8684 29.4447 19.8684C29.1018 19.8684 28.7087 19.8039 28.2809 19.6976L28.4466 20.2101C29.2713 20.3734 30.069 20.6088 30.6509 20.9391C31.5025 21.4251 31.9958 21.9452 32.1538 22.5413C32.331 23.2095 32.0536 23.798 31.7607 24.2916C31.6027 24.5536 31.1133 25.3092 30.1345 25.3927L30.7703 27.348C31.0324 27.0784 31.3754 26.8203 31.8108 26.5773C33.6528 25.537 37.3985 25.4838 37.5565 25.4838C37.7222 25.4838 37.8301 25.5597 37.9033 25.6774C37.9765 25.7989 37.9996 25.947 37.9264 26.0647C37.8416 26.209 35.8532 29.6147 34.0073 30.655C33.3946 31.0005 32.8628 31.1637 32.3811 31.1637C32.2501 31.1637 32.1229 31.1486 32.0073 31.1258L32.3619 32.2116C33.8725 32.4812 35.2097 32.933 35.2906 32.9596C35.4255 33.0052 35.5372 33.1153 35.5603 33.252C35.5873 33.3886 35.5449 33.5519 35.437 33.6392C35.3676 33.6962 34.4698 34.4403 33.3291 35.1807L37.1788 46.9962H47.9881L38.2154 19.8115L38.227 19.8153ZM30.7626 14.6441C30.331 14.8833 29.9303 14.9858 29.5526 14.9858C28.728 14.9858 28.0189 14.4504 27.3831 13.357C26.3195 11.5497 26.2732 7.87447 26.2732 7.7226C26.2732 7.58212 26.3503 7.45303 26.4698 7.38089C26.5314 7.34672 26.5969 7.33153 26.6663 7.33153C26.7357 7.33153 26.8012 7.34672 26.8628 7.38089C27.0093 7.46442 30.4852 9.43113 31.5488 11.2422C32.0228 12.0509 32.1807 12.7229 32.0189 13.3076C31.8301 13.9758 31.2752 14.3593 30.7626 14.6441Z" fill="#0F6F21"/>
<path d="M30.5402 29.9032C30.7329 30.2411 31.1722 30.9587 32.0162 31.1296L30.783 27.348C30.0624 28.0922 29.9853 28.9388 30.5402 29.9032Z" fill="#0F6F21"/>
<path d="M29.5059 32.0864C28.3576 32.2876 27.6369 32.6976 27.3132 33.3507C27.1206 33.7417 27.0705 34.2239 27.1668 34.7858C27.2709 35.3705 27.5098 36.7526 29.3364 36.7526C29.5869 36.7526 29.8759 36.707 30.1764 36.6538C31.1553 36.4792 32.3422 35.8337 33.3441 35.1845L32.3768 32.2154C31.7294 32.0977 31.0474 32.018 30.4231 32.018C30.0917 32.018 29.7757 32.0446 29.5098 32.0901L29.5059 32.0864Z" fill="#0F6F21"/>
<path d="M27.3105 33.3507C27.5263 32.7698 27.43 32.0636 27.0138 31.1903C26.0967 29.2502 22.7672 26.9152 22.6246 26.8165C22.5668 26.7747 22.4974 26.7481 22.4281 26.7443C22.3587 26.7367 22.297 26.7633 22.2315 26.7937C22.1044 26.8544 22.0196 26.9683 22.008 27.1088C21.9965 27.2683 21.7537 31.0233 22.6747 32.9634C23.2643 34.2125 24.0119 34.8086 24.9175 34.8086C25.245 34.8086 25.5687 34.7365 25.9541 34.5656C26.4859 34.3264 27.0678 33.9999 27.3105 33.3507Z" fill="#0F6F21"/>
<path d="M1.32563 44.1411C1.21773 44.1676 0 45.2117 0 45.2117C0 45.2117 1.93064 45.4244 3.43353 45.2991L3.96917 43.8145C2.69364 44.2094 2.5896 44.1866 1.32177 44.1411H1.32563Z" fill="#0F6F21"/>
<path d="M30.8353 39.3533C30.7082 39.2584 27.6407 36.9956 25.4866 36.6804C25.0126 36.6083 24.5964 36.5931 24.2303 36.6311C23.1282 36.7488 22.5193 37.3752 22.3305 38.5029C22.2419 39.0686 22.2111 39.7216 22.6272 40.276C23.001 40.7733 23.6523 41.0809 24.6234 41.2251C24.8353 41.2555 25.0511 41.2745 25.2901 41.2745C27.4789 41.2745 30.608 40.0633 30.739 40.0102C30.8739 39.957 30.9664 39.8583 30.9856 39.7178C31.0049 39.5774 30.9509 39.4369 30.8392 39.3533H30.8353Z" fill="#0F6F21"/>
<path d="M22.8975 37.1664C23.2559 36.6652 23.3368 35.978 23.1672 35.0288C22.7896 32.9178 20.1961 29.8159 20.0844 29.683C19.9919 29.5767 19.8339 29.5349 19.6913 29.5615C19.5526 29.5881 19.4408 29.6716 19.3946 29.8045C19.3445 29.9564 18.1306 33.5253 18.5083 35.6363C18.7934 37.2461 19.5603 38.0662 20.751 38.0662C20.9244 38.0662 21.094 38.0473 21.2674 38.0169C21.8416 37.922 22.489 37.7321 22.8936 37.1664H22.8975Z" fill="#0F6F21"/>
<path d="M24.1544 20.0127C24.085 20.1342 24.1043 20.305 24.1775 20.4265C24.2623 20.5632 26.2623 23.7487 28.1467 24.8232C28.848 25.2218 29.4338 25.4079 29.9694 25.4079C30.0311 25.4079 30.085 25.3965 30.1428 25.3927L28.455 20.2101C26.6091 19.8418 24.6168 19.8228 24.4974 19.8228C24.3779 19.8418 24.2238 19.895 24.1505 20.0165L24.1544 20.0127Z" fill="#0F6F21"/>
<path d="M25.5607 29.0527C26.289 29.964 27.0135 30.412 27.7533 30.412C28.2158 30.412 28.6628 30.2373 29.1329 29.8766C29.5915 29.5273 30.0809 29.0793 30.1695 28.3959C30.2466 27.7846 29.9884 27.1164 29.3796 26.3571C28.0308 24.6751 24.2389 23.164 24.077 23.1032C24.0115 23.0767 23.946 23.0691 23.8805 23.0805C23.8112 23.0918 23.7379 23.107 23.684 23.1526C23.5722 23.2399 23.5106 23.3766 23.5376 23.5171C23.5645 23.6728 24.2119 27.3708 25.5607 29.0565V29.0527Z" fill="#0F6F21"/>
<path d="M17.2254 41.2213C17.1561 41.3466 17.1098 41.4833 17.052 41.6352C16.8555 42.1705 16.6782 42.8084 16.9788 43.431C17.2447 43.9892 17.8227 44.4182 18.7553 44.7447C19.3603 44.9535 20.1888 45.0599 21.2216 45.0599C23.0636 45.0599 24.9403 44.7333 25.0173 44.7181C25.156 44.6916 25.2678 44.5853 25.314 44.4524C25.3603 44.3195 25.3372 44.1676 25.2408 44.0651C25.1329 43.9474 22.5626 41.1606 20.5048 40.4468C19.7379 40.181 19.106 40.1089 18.5819 40.2038C18.7437 40.0671 18.9171 39.9342 19.0751 39.79C19.0751 39.79 18.6705 39.995 18.0655 40.2759C18.0809 40.257 18.1002 40.2456 18.1156 40.2266C18.5279 39.7634 18.7052 39.0724 18.632 38.1118C18.5587 37.0677 17.9692 35.735 17.3796 34.634L15.3256 40.7657C15.5799 40.8606 15.8651 40.9062 16.1888 40.9062C16.262 40.9062 16.3352 40.91 16.4123 40.9062C16.4778 40.9024 16.5433 40.8872 16.6088 40.8834C16.158 41.0657 15.6493 41.2631 15.0944 41.4643L14.7129 42.6034C15.5876 42.2047 16.4354 41.7453 17.2254 41.2251V41.2213Z" fill="#0F6F21"/>
<path d="M28.2927 19.6976L26.8207 15.1756C25.5182 15.3047 24.2696 15.5819 23.7147 15.7148L23.418 16.6032C24.0654 17.1879 26.3737 19.1926 28.2002 19.6748C28.2311 19.6824 28.2619 19.69 28.2927 19.6976Z" fill="#0F6F21"/>
</g>
<defs>
<clipPath id="clip0_59_1848">
<rect width="48" height="47" fill="white"/>
</clipPath>
</defs>
</svg>
