<svg width="786" height="276" viewBox="0 0 786 276" fill="none" xmlns="http://www.w3.org/2000/svg">
<g clip-path="url(#clip0_59_1865)">
<path d="M16.9713 227.246L13.9238 235.798H65.4261L72.7019 213.723C53.0648 222.846 30.4945 226.084 16.9713 227.246Z" fill="white"/>
<path d="M188.943 99.4047C187.229 105.785 184.486 113.842 180.696 118.318C177.439 122.146 174.201 123.918 170.944 123.918C167.687 123.918 165.306 122.127 163.268 120.375C157.497 115.423 157.668 109.614 163.63 102.586C168.772 96.5287 179.877 91.348 185.286 89.0814L180.486 75.5201C180.029 78.2438 179.343 80.777 178.372 82.8341C175.705 88.3957 172.391 91.1194 168.258 91.1194C165.953 91.1194 163.801 90.2432 162.049 89.4052C155.192 86.0911 153.84 80.4151 157.782 72.0917C160.754 65.8254 168.296 59.0638 173.248 55.0449L153.745 0H98.071L19.6367 219.799C42.1118 218.313 61.3109 212.866 74.6055 208.009L75.7673 204.504C71.6151 202.943 69.3295 198.809 68.8153 191.934C68.0725 181.21 75.8054 164.03 76.1292 163.287C76.434 162.64 77.0054 162.259 77.7101 162.183C78.4148 162.145 79.1386 162.449 79.5386 163.04C79.7862 163.402 82.8527 167.954 85.9002 173.744L115.727 83.2912C115.251 82.8531 114.946 82.5674 114.87 82.4912C114.356 81.996 114.204 81.2151 114.375 80.5485C114.546 79.8628 115.042 79.3866 115.708 79.2152C115.803 79.1962 116.337 79.0438 117.175 78.8343L125.384 53.9212L132.507 76.1296C134.584 75.9201 136.698 75.7868 138.717 75.7868C141.688 75.7868 144.221 76.0916 146.278 76.6439C150.945 77.901 154.011 79.8057 155.535 82.4912C157.249 85.5006 156.659 88.7576 155.897 91.5003C154.354 96.9858 150.983 99.6714 145.535 99.6714C143.84 99.6714 141.897 99.3476 139.783 98.8143L140.602 101.386C144.678 102.205 148.621 103.385 151.497 105.043C155.706 107.481 158.144 110.09 158.925 113.08C159.801 116.432 158.43 119.385 156.982 121.861C156.202 123.175 153.783 126.965 148.945 127.384L152.087 137.193C153.383 135.841 155.078 134.546 157.23 133.327C166.334 128.108 184.848 127.841 185.629 127.841C186.448 127.841 186.981 128.222 187.343 128.813C187.705 129.422 187.819 130.165 187.457 130.756C187.038 131.479 177.21 148.564 168.087 153.783C165.058 155.516 162.43 156.335 160.049 156.335C159.401 156.335 158.773 156.259 158.201 156.145L159.954 161.592C167.42 162.944 174.029 165.211 174.429 165.344C175.096 165.573 175.648 166.125 175.762 166.811C175.896 167.497 175.686 168.316 175.153 168.754C174.81 169.039 170.372 172.773 164.734 176.487L183.762 235.76H237.188L188.886 99.3857L188.943 99.4047ZM152.049 73.4631C149.916 74.663 147.935 75.1773 146.069 75.1773C141.993 75.1773 138.488 72.4917 135.345 67.0063C130.088 57.94 129.86 39.5028 129.86 38.741C129.86 38.0363 130.241 37.3887 130.831 37.0268C131.136 36.8554 131.46 36.7792 131.803 36.7792C132.146 36.7792 132.469 36.8554 132.774 37.0268C133.498 37.4458 150.678 47.312 155.935 56.3973C158.278 60.4542 159.059 63.8255 158.259 66.7587C157.325 70.1109 154.583 72.0346 152.049 73.4631Z" fill="white"/>
<path d="M150.946 150.012C151.898 151.707 154.07 155.307 158.241 156.164L152.146 137.193C148.584 140.927 148.203 145.174 150.946 150.012Z" fill="white"/>
<path d="M145.84 160.964C140.164 161.973 136.602 164.03 135.002 167.306C134.05 169.268 133.802 171.687 134.279 174.506C134.793 177.439 135.974 184.372 145.002 184.372C146.24 184.372 147.668 184.143 149.154 183.877C153.992 183.001 159.858 179.763 164.81 176.506L160.03 161.611C156.83 161.021 153.459 160.621 150.373 160.621C148.735 160.621 147.173 160.754 145.859 160.983L145.84 160.964Z" fill="white"/>
<path d="M134.985 167.306C136.051 164.392 135.575 160.849 133.518 156.469C128.985 146.736 112.528 135.022 111.824 134.527C111.538 134.317 111.195 134.184 110.852 134.165C110.509 134.127 110.205 134.26 109.881 134.413C109.252 134.717 108.833 135.289 108.776 135.993C108.719 136.793 107.519 155.631 112.071 165.363C114.985 171.63 118.681 174.62 123.157 174.62C124.775 174.62 126.375 174.258 128.28 173.401C130.909 172.201 133.785 170.563 134.985 167.306Z" fill="white"/>
<path d="M6.55206 221.437C6.01876 221.57 0 226.808 0 226.808C0 226.808 9.54239 227.875 16.9706 227.246L19.6181 219.799C13.7517 220.18 12.7994 221.665 6.53302 221.437H6.55206Z" fill="white"/>
<path d="M152.412 197.419C151.784 196.943 136.622 185.591 125.975 184.01C123.633 183.648 121.575 183.572 119.766 183.763C114.319 184.353 111.309 187.496 110.376 193.153C109.938 195.99 109.786 199.267 111.843 202.047C113.69 204.542 116.909 206.085 121.709 206.809C122.756 206.961 123.823 207.057 125.004 207.057C135.822 207.057 151.288 200.981 151.936 200.714C152.603 200.447 153.06 199.952 153.155 199.247C153.25 198.543 152.983 197.838 152.431 197.419H152.412Z" fill="white"/>
<path d="M113.175 186.448C114.946 183.934 115.346 180.486 114.508 175.725C112.641 165.135 99.8229 149.574 99.2706 148.907C98.8135 148.374 98.0325 148.164 97.3278 148.298C96.6421 148.431 96.0898 148.85 95.8612 149.516C95.6136 150.278 89.6139 168.182 91.4805 178.772C92.8899 186.848 96.6802 190.962 102.566 190.962C103.423 190.962 104.261 190.867 105.118 190.714C107.956 190.238 111.156 189.286 113.156 186.448H113.175Z" fill="white"/>
<path d="M119.385 100.395C119.042 101.005 119.137 101.862 119.499 102.471C119.918 103.157 129.803 119.137 139.117 124.527C142.584 126.527 145.479 127.46 148.126 127.46C148.431 127.46 148.698 127.403 148.983 127.384L140.641 101.386C131.518 99.538 121.67 99.4428 121.08 99.4428C120.489 99.538 119.728 99.8047 119.366 100.414L119.385 100.395Z" fill="white"/>
<path d="M126.337 145.745C129.937 150.317 133.518 152.564 137.175 152.564C139.46 152.564 141.67 151.688 143.994 149.878C146.26 148.126 148.679 145.879 149.117 142.45C149.498 139.384 148.222 136.032 145.213 132.222C138.546 123.784 119.804 116.204 119.004 115.899C118.681 115.766 118.357 115.728 118.033 115.785C117.69 115.842 117.328 115.918 117.062 116.147C116.509 116.585 116.204 117.271 116.338 117.975C116.471 118.756 119.671 137.308 126.337 145.764V145.745Z" fill="white"/>
<path d="M85.1391 206.79C84.7963 207.418 84.5677 208.104 84.282 208.866C83.3107 211.552 82.4345 214.751 83.9202 217.875C85.2344 220.675 88.0914 222.827 92.7007 224.465C95.691 225.513 99.7861 226.046 104.891 226.046C113.995 226.046 123.271 224.408 123.652 224.332C124.337 224.199 124.89 223.665 125.118 222.999C125.347 222.332 125.232 221.57 124.756 221.056C124.223 220.465 111.519 206.485 101.348 202.904C97.5576 201.571 94.4339 201.209 91.8436 201.685C92.6435 201 93.5006 200.333 94.2816 199.609C94.2816 199.609 92.2817 200.638 89.2913 202.047C89.3675 201.952 89.4627 201.895 89.5389 201.8C91.5769 199.476 92.4531 196.009 92.0912 191.191C91.7293 185.953 88.8152 179.267 85.901 173.744L75.7491 204.504C77.0062 204.98 78.4157 205.209 80.0156 205.209C80.3775 205.209 80.7394 205.228 81.1203 205.209C81.4441 205.19 81.7679 205.114 82.0917 205.095C79.8632 206.009 77.349 206.999 74.6063 208.009L72.7207 213.723C77.0443 211.723 81.2346 209.418 85.1391 206.809V206.79Z" fill="white"/>
<path d="M139.84 98.8142L132.564 76.1296C126.127 76.7772 119.955 78.1676 117.213 78.8342L115.746 83.2911C118.946 86.2243 130.355 96.281 139.383 98.6999C139.535 98.738 139.688 98.7761 139.84 98.8142Z" fill="white"/>
<path d="M273.262 258.559C275.319 260.292 278.767 261.168 283.643 261.168C290.519 261.168 295.109 258.864 297.432 254.273C298.956 251.321 299.718 246.369 299.718 239.417V234.731C297.89 237.855 295.928 240.198 293.833 241.76C290.042 244.655 285.109 246.121 279.033 246.121C269.662 246.121 262.177 242.826 256.577 236.236C250.978 229.646 248.178 220.732 248.178 209.495C248.178 198.257 250.882 189.534 256.273 182.144C261.663 174.753 269.339 171.058 279.243 171.058C282.9 171.058 286.1 171.611 288.823 172.734C293.471 174.658 297.223 178.182 300.08 183.305V172.792H318.631V242.026C318.631 251.454 317.051 258.54 313.87 263.321C308.422 271.53 297.985 275.644 282.538 275.644C273.205 275.644 265.605 273.815 259.701 270.158C253.797 266.501 250.559 261.035 249.93 253.759H270.691C271.224 255.988 272.1 257.607 273.3 258.578L273.262 258.559ZM270.062 220.865C272.653 227.018 277.3 230.103 283.986 230.103C288.442 230.103 292.214 228.427 295.299 225.056C298.385 221.684 299.928 216.313 299.928 208.942C299.928 202.028 298.461 196.752 295.547 193.133C292.633 189.515 288.709 187.705 283.795 187.705C277.091 187.705 272.481 190.848 269.929 197.152C268.596 200.505 267.929 204.638 267.929 209.533C267.929 213.78 268.653 217.551 270.062 220.846V220.865Z" fill="white"/>
<path d="M373.106 190.391C365.431 190.391 360.269 192.886 357.64 197.895C356.174 200.714 355.431 205.038 355.431 210.885V245.779H336.213V172.792H354.422V185.515C357.374 180.658 359.926 177.325 362.116 175.534C365.697 172.544 370.325 171.039 376.04 171.039C376.401 171.039 376.706 171.039 376.935 171.077C377.163 171.116 377.735 171.135 378.573 171.173V190.734C377.373 190.6 376.287 190.505 375.354 190.467C374.421 190.429 373.659 190.391 373.068 190.391H373.106Z" fill="white"/>
<path d="M450.644 182.029C456.796 189.743 459.882 198.886 459.882 209.418C459.882 219.951 456.796 229.303 450.644 236.903C444.492 244.502 435.14 248.312 422.588 248.312C410.037 248.312 400.685 244.502 394.533 236.903C388.38 229.303 385.295 220.123 385.295 209.418C385.295 198.714 388.38 189.762 394.533 182.029C400.685 174.296 410.037 170.449 422.588 170.449C435.14 170.449 444.492 174.315 450.644 182.029ZM422.531 186.581C416.951 186.581 412.646 188.562 409.637 192.505C406.627 196.448 405.123 202.085 405.123 209.418C405.123 216.751 406.627 222.389 409.637 226.351C412.646 230.313 416.951 232.313 422.531 232.313C428.112 232.313 432.397 230.332 435.388 226.351C438.378 222.37 439.883 216.732 439.883 209.418C439.883 202.104 438.378 196.467 435.388 192.505C432.397 188.543 428.112 186.581 422.531 186.581Z" fill="white"/>
<path d="M505.898 147.079H527.935L549.363 222.008L571 147.079H592.428L558.753 245.779H539.268L505.918 147.079H505.898Z" fill="white"/>
<path d="M620.332 146.469V164.087H600.98V146.469H620.332ZM620.332 172.792V245.779H600.98V172.792H620.332Z" fill="white"/>
<path d="M705.241 147.212V245.779H686.69V235.665C683.966 239.988 680.862 243.15 677.376 245.112C673.891 247.074 669.567 248.064 664.386 248.064C655.853 248.064 648.692 244.617 642.864 237.722C637.035 230.827 634.121 221.97 634.121 211.171C634.121 198.714 636.997 188.924 642.73 181.782C648.463 174.639 656.139 171.077 665.739 171.077C670.157 171.077 674.081 172.049 677.529 173.992C680.976 175.934 683.757 178.62 685.89 182.067V147.25H705.241V147.212ZM653.815 209.742C653.815 216.485 655.149 221.856 657.834 225.875C660.463 229.932 664.482 231.97 669.891 231.97C675.3 231.97 679.395 229.97 682.214 225.951C685.033 221.932 686.423 216.732 686.423 210.352C686.423 201.419 684.176 195.038 679.662 191.21C676.9 188.886 673.681 187.724 670.024 187.724C664.443 187.724 660.348 189.838 657.739 194.048C655.13 198.257 653.815 203.495 653.815 209.742Z" fill="white"/>
<path d="M725.316 180.696C730.364 174.258 739.03 171.058 751.296 171.058C759.296 171.058 766.381 172.639 772.59 175.82C778.8 179.001 781.904 184.962 781.904 193.762V227.246C781.904 229.57 781.942 232.389 782.038 235.684C782.171 238.179 782.552 239.874 783.18 240.769C783.809 241.664 784.742 242.407 785.999 242.979V245.798H765.238C764.667 244.331 764.248 242.941 764.038 241.645C763.829 240.35 763.638 238.884 763.505 237.227C760.877 240.084 757.829 242.522 754.401 244.521C750.287 246.883 745.658 248.064 740.478 248.064C733.868 248.064 728.421 246.179 724.097 242.407C719.774 238.636 717.641 233.284 717.641 226.37C717.641 217.399 721.107 210.904 728.021 206.885C731.811 204.695 737.392 203.133 744.763 202.2L751.258 201.4C754.782 200.962 757.315 200.39 758.82 199.724C761.543 198.562 762.896 196.752 762.896 194.295C762.896 191.305 761.867 189.248 759.791 188.105C757.715 186.962 754.667 186.391 750.649 186.391C746.134 186.391 742.954 187.515 741.068 189.743C739.735 191.4 738.84 193.629 738.383 196.448H719.964C720.364 190.067 722.155 184.81 725.316 180.715V180.696ZM739.525 231.989C741.316 233.455 743.506 234.198 746.096 234.198C750.21 234.198 753.982 232.998 757.448 230.579C760.915 228.16 762.705 223.78 762.838 217.38V210.276C761.639 211.037 760.42 211.647 759.181 212.123C757.943 212.599 756.267 213.018 754.134 213.437L749.849 214.237C745.83 214.961 742.954 215.818 741.201 216.847C738.249 218.58 736.783 221.284 736.783 224.941C736.783 228.198 737.697 230.541 739.525 231.97V231.989Z" fill="white"/>
</g>
<defs>
<clipPath id="clip0_59_1865">
<rect width="786" height="275.644" fill="white"/>
</clipPath>
</defs>
</svg>
