<?xml version="1.0" encoding="UTF-8"?>
<svg id="Calque_1" data-name="Calque 1" xmlns="http://www.w3.org/2000/svg" viewBox="0 0 129.04 129.04">
  <defs>
    <style>
      .cls-1 {
        fill: none;
      }

      .cls-2 {
        fill: #00710d;
      }
    </style>
  </defs>
  <path class="cls-1" d="M30.56,89.86l-1.82,5.11c-2.59-.88-5.2-1.71-7.83-2.47-2.36-.69-4.73-1.32-7.12-1.9-.72-1.37-1.38-2.78-1.99-4.21-.16-.38-.32-.76-.47-1.14,5.71,1,11.37,2.31,16.96,3.93.76.22,1.52.45,2.27.68Z"/>
  <path class="cls-1" d="M34.14,79.83l-1.42,4c-.88-.27-1.76-.54-2.65-.8-6.89-2-13.9-3.54-20.97-4.64-.31-1.2-.57-2.42-.8-3.64,8.73.98,17.37,2.68,25.84,5.08Z"/>
  <path class="cls-1" d="M26.58,101l-1.57,4.43c-.37-.34-.72-.69-1.08-1.05-1.83-1.83-3.53-3.77-5.08-5.81.09.02.19.05.28.08,2.51.72,4.99,1.51,7.45,2.35Z"/>
  <path class="cls-1" d="M57.97,115.75c-1.4,1.41-2.79,2.85-4.14,4.31-4.08-.73-8.05-1.91-11.9-3.54-5.52-2.34-10.58-5.5-15.09-9.43h14.91c5.56,2.57,10.97,5.46,16.22,8.66Z"/>
  <path class="cls-1" d="M101.1,107.09c-4.51,3.93-9.57,7.09-15.1,9.43-1.67.71-3.38,1.33-5.1,1.87,4.78-3.86,9.79-7.46,15-10.76.28-.18.57-.36.85-.54h4.35Z"/>
  <path class="cls-1" d="M106.91,101.25c-.37.44-.76.87-1.15,1.3l-.2-.58c.45-.24.9-.48,1.35-.72Z"/>
  <path class="cls-1" d="M87.11,105.77c-6.62,4.56-12.89,9.58-18.77,15.03-1.45.11-2.91.17-4.37.17-.71,0-1.41-.02-2.12-.04.55-.56,1.1-1.11,1.65-1.65.14.08.27.17.4.26l1.27-1.88c6.35-6.09,13.18-11.65,20.45-16.62l1.49,4.73Z"/>
  <path class="cls-1" d="M120.58,64.35c0,4.17-.44,8.27-1.33,12.27-6.72,2.45-13.27,5.32-19.63,8.6l-23.27-65.72h-20.68l-19.37,54.29c-9.44-2.7-19.08-4.56-28.82-5.57-.08-1.28-.13-2.57-.13-3.87,0-7.64,1.5-15.06,4.45-22.04,2.85-6.74,6.93-12.79,12.13-17.99,5.2-5.2,11.26-9.29,18-12.14,6.98-2.95,14.39-4.45,22.04-4.45s15.06,1.5,22.03,4.45c6.75,2.85,12.8,6.94,18,12.14,5.2,5.2,9.29,11.25,12.14,17.99,2.95,6.98,4.44,14.4,4.44,22.04Z"/>
  <path class="cls-1" d="M116.95,84.35c-.26.68-.53,1.36-.81,2.04-.62,1.45-1.29,2.86-2.01,4.25-3.64,1.61-7.22,3.35-10.74,5.23l-1.61-4.55c4.94-2.59,10-4.91,15.17-6.97Z"/>
  <path class="cls-1" d="M83.62,94.66c-.29.19-.58.39-.87.58-3.27-2.17-6.61-4.22-10.01-6.15h9.14l1.74,5.57Z"/>
  <path class="cls-1" d="M77.13,99.22c-1.4,1.03-2.78,2.09-4.15,3.16-7.56-4.79-15.46-8.95-23.65-12.46l.28-.83h9.23c6.3,2.97,12.41,6.35,18.29,10.13Z"/>
  <polygon class="cls-1" points="76.77 73.99 54.54 73.99 65.83 39.53 76.77 73.99"/>
  <path class="cls-1" d="M67.76,106.67c-1.71,1.46-3.39,2.96-5.03,4.49-5.61-3.5-11.41-6.65-17.37-9.45l1.92-5.7c7.06,3.05,13.9,6.61,20.48,10.66Z"/>
  <path class="cls-2" d="M1.28,77.37h-.03c-.23-1.09-.42-2.19-.59-3.3h.04c.16,1.1.36,2.21.58,3.3Z"/>
  <path class="cls-2" d="M1.99,80.49c-.28-1.03-.53-2.07-.74-3.12h.03c.21,1.05.45,2.09.71,3.12Z"/>
  <path class="cls-2" d="M123.97,39.41c-3.25-7.69-7.9-14.59-13.83-20.51-5.92-5.93-12.82-10.58-20.51-13.83-7.95-3.36-16.4-5.07-25.11-5.07s-17.16,1.71-25.11,5.07c-7.69,3.25-14.59,7.9-20.51,13.83-5.93,5.92-10.58,12.82-13.83,20.51C1.71,47.36,0,55.81,0,64.52c0,1.04.02,2.07.07,3.1H.01c.11,2.17.32,4.32.65,6.45h.04c.16,1.1.36,2.21.58,3.3.21,1.05.45,2.09.71,3.12.13.52.27,1.04.42,1.55.07.28.16.56.24.84.11.38.23.75.35,1.13.13.39.26.78.39,1.17.5,1.5,1.06,2.98,1.68,4.45,3.25,7.69,7.9,14.59,13.83,20.51,5.92,5.93,12.82,10.58,20.51,13.83,7.95,3.36,16.4,5.07,25.11,5.07s17.16-1.71,25.11-5.07c7.69-3.25,14.59-7.9,20.51-13.83,5.93-5.92,10.58-12.82,13.83-20.51,3.36-7.95,5.07-16.4,5.07-25.11s-1.71-17.16-5.07-25.11ZM8.3,74.75c8.73.98,17.37,2.68,25.84,5.08.3.09.61.17.91.26,8.18,2.37,16.13,5.38,23.79,9,6.3,2.97,12.41,6.35,18.29,10.13-1.4,1.03-2.78,2.09-4.15,3.16-7.56-4.79-15.46-8.95-23.65-12.46-5.42-2.32-10.96-4.35-16.61-6.09-.88-.27-1.76-.54-2.65-.8-6.89-2-13.9-3.54-20.97-4.64-.31-1.2-.57-2.42-.8-3.64ZM54.54,73.99l11.29-34.46,10.94,34.46h-22.23ZM81.88,89.09l1.74,5.57c-.29.19-.58.39-.87.58-3.27-2.17-6.61-4.22-10.01-6.15h9.14ZM11.8,86.39c-.16-.38-.32-.76-.47-1.14,5.71,1,11.37,2.31,16.96,3.93.76.22,1.52.45,2.27.68,5.69,1.74,11.27,3.79,16.72,6.15,7.06,3.05,13.9,6.61,20.48,10.66-1.71,1.46-3.39,2.96-5.03,4.49-5.61-3.5-11.41-6.65-17.37-9.45-5.41-2.54-10.96-4.79-16.62-6.74-2.59-.88-5.2-1.71-7.83-2.47-2.36-.69-4.73-1.32-7.12-1.9-.72-1.37-1.38-2.78-1.99-4.21ZM53.83,120.06c-4.08-.73-8.05-1.91-11.9-3.54-5.52-2.34-10.58-5.5-15.09-9.43-.62-.54-1.23-1.09-1.83-1.66-.37-.34-.72-.69-1.08-1.05-1.83-1.83-3.53-3.77-5.08-5.81.09.02.19.05.28.08,2.51.72,4.99,1.51,7.45,2.35,5.17,1.78,10.23,3.81,15.17,6.09,5.56,2.57,10.97,5.46,16.22,8.66-1.4,1.41-2.79,2.85-4.14,4.31ZM105.76,102.55c-.57.62-1.16,1.23-1.76,1.83-.94.94-1.91,1.85-2.9,2.71-4.51,3.93-9.57,7.09-15.1,9.43-1.67.71-3.38,1.33-5.1,1.87,4.78-3.86,9.79-7.46,15-10.76.28-.18.57-.36.85-.54,2.89-1.8,5.82-3.51,8.81-5.12.45-.24.9-.48,1.35-.72-.37.44-.76.87-1.15,1.3ZM116.14,86.39c-.62,1.45-1.29,2.86-2.01,4.25-3.64,1.61-7.22,3.35-10.74,5.23-3.71,1.97-7.35,4.09-10.92,6.35-1.81,1.15-3.6,2.33-5.36,3.55-6.62,4.56-12.89,9.58-18.77,15.03-1.45.11-2.91.17-4.37.17-.71,0-1.41-.02-2.12-.04.55-.56,1.1-1.11,1.65-1.65.55-.55,1.11-1.09,1.67-1.62,6.35-6.09,13.18-11.65,20.45-16.62,1.56-1.07,3.14-2.11,4.74-3.12,3.72-2.36,7.53-4.56,11.42-6.6,4.94-2.59,10-4.91,15.17-6.97-.26.68-.53,1.36-.81,2.04ZM119.25,76.62c-6.72,2.45-13.27,5.32-19.63,8.6l-23.27-65.72h-20.68l-19.37,54.29c-9.44-2.7-19.08-4.56-28.82-5.57-2.03-.2-4.06-.38-6.1-.5-.05-1.06-.08-2.13-.08-3.2,0-8.54,1.67-16.81,4.97-24.61,3.18-7.53,7.74-14.29,13.55-20.09,5.8-5.81,12.56-10.37,20.09-13.55,7.8-3.3,16.07-4.97,24.61-4.97s16.81,1.67,24.61,4.97c7.53,3.18,14.29,7.74,20.09,13.55,5.81,5.8,10.37,12.56,13.55,20.09,3.3,7.8,4.97,16.07,4.97,24.61,0,3.21-.24,6.37-.7,9.49-2.62.81-5.22,1.68-7.79,2.61Z"/>
</svg>